#!OML:ASF X:\für Bonn\!DataBase\2005_08_12_Daniel\c3d\Daniel.ASF
:FULLY-SPECIFIED
:DEGREES
69
root -3.76303 17.3363 0.620219 453.25 -77.6105 -480.299
lowerback 46.4613 -15.227 -4.32467
upperback 12.6542 -23.4616 -0.44754
thorax -4.53168 -12.755 10.7794
lowerneck 9.27435 13.1689 2.57028
upperneck 0.879941 17.4471 -7.60174
head -0.307553 8.8044 -3.26333
rclavicle -3.85642e-014 8.90555e-014
rhumerus -56.0853 13.4299 -74.0649
rradius 31.4906
rwrist 22.5864
rhand -38.3172 40.8948
rfingers 7.12502
rthumb -11.3452 11.2217
lclavicle -3.85642e-014 8.90555e-014
lhumerus 34.5629 1.71523 76.383
lradius 125.059
lwrist 33.3542
lhand -15.5396 -12.4908
lfingers 7.12502
lthumb 10.6443 17.2196
rfemur -75.8542 -19.6508 31.1476
rtibia 114.799
rfoot 0.32084 12.133
rtoes -8.84946
lfemur 17.7822 -8.03784 -17.8327
ltibia 28.782
lfoot -23.0333 5.79855
ltoes 9.0114
70
root -3.77836 17.3412 0.628314 455.641 -77.4956 -482.247
lowerback 45.6006 -15.0738 -4.21248
upperback 12.4715 -23.1416 -0.385568
thorax -4.5875 -12.5535 10.5976
lowerneck 9.28067 13.0422 2.56234
upperneck 0.861964 17.2803 -7.526
head -0.332506 8.72041 -3.2397
rclavicle -7.71285e-014 5.725e-014
rhumerus -55.5218 13.6471 -74.1717
rradius 32.1074
rwrist 21.3727
rhand -37.9513 40.5192
rfingers 7.12502
rthumb -10.9922 10.827
lclavicle -7.71285e-014 5.725e-014
lhumerus 33.7659 2.02271 76.2466
lradius 125.034
lwrist 33.3879
lhand -15.4567 -12.3321
lfingers 7.12502
lthumb 10.7243 17.3742
rfemur -73.9001 -19.5007 30.4772
rtibia 113.664
rfoot 0.533715 11.6018
rtoes -7.85094
lfemur 17.3283 -7.96189 -17.935
ltibia 28.9607
lfoot -23.3047 6.11989
ltoes 9.05094
71
root -3.79429 17.3418 0.635238 457.972 -77.3674 -484.138
lowerback 44.7585 -14.9185 -4.12453
upperback 12.255 -22.8263 -0.322747
thorax -4.67031 -12.3492 10.4355
lowerneck 9.37079 12.925 2.4993
upperneck 0.81838 17.1167 -7.42782
head -0.386354 8.63839 -3.20921
rclavicle -2.40927e-013 3.18055e-014
rhumerus -54.979 13.707 -74.1797
rradius 32.7516
rwrist 20.3156
rhand -37.5051 40.0678
rfingers 7.12502
rthumb -10.5619 10.3532
lclavicle -2.40927e-013 3.18055e-014
lhumerus 32.8562 2.33779 76.1129
lradius 125.009
lwrist 33.3568
lhand -15.2636 -12.1891
lfingers 7.12502
lthumb 10.9105 17.5075
rfemur -71.9286 -19.2931 29.8294
rtibia 112.467
rfoot 0.727709 11.0186
rtoes -7.76236
lfemur 16.8676 -7.92116 -18.0593
ltibia 29.178
lfoot -23.6154 6.49439
ltoes 8.99893
72
root -3.81079 17.3399 0.635056 460.22 -77.2296 -485.925
lowerback 43.874 -14.7709 -4.01807
upperback 12.0407 -22.5106 -0.29994
thorax -4.75177 -12.1406 10.2179
lowerneck 9.40657 12.8213 2.43772
upperneck 0.822193 16.9753 -7.25346
head -0.420826 8.56442 -3.14754
rclavicle 1.32788e-013 -1.27222e-014
rhumerus -54.4392 13.5715 -74.2026
rradius 33.3222
rwrist 19.4737
rhand -37.1195 39.7738
rfingers 7.12502
rthumb -10.1899 10.0406
lclavicle 1.32788e-013 -1.27222e-014
lhumerus 31.8944 2.61124 75.8462
lradius 124.958
lwrist 33.3559
lhand -15.0451 -12.0648
lfingers 7.12502
lthumb 11.1213 17.6205
rfemur -69.9533 -18.9979 29.2259
rtibia 111.22
rfoot 0.945788 10.3361
rtoes -7.37279
lfemur 16.3659 -7.89563 -18.1575
ltibia 29.4279
lfoot -23.9465 6.84687
ltoes 8.96128
73
root -3.827 17.3363 0.631412 462.289 -77.0997 -487.527
lowerback 43.0197 -14.6658 -3.86932
upperback 11.7943 -22.2271 -0.300329
thorax -4.88397 -11.9375 9.98194
lowerneck 9.2951 12.7314 2.2808
upperneck 0.929891 16.8471 -7.01731
head -0.409187 8.49122 -3.03405
rclavicle 4.53229e-014 -9.46215e-014
rhumerus -53.9202 13.5014 -74.3365
rradius 33.8391
rwrist 18.6676
rhand -36.8069 39.4162
rfingers 7.12502
rthumb -9.8884 9.66839
lclavicle 4.53229e-014 -9.46215e-014
lhumerus 30.851 2.88496 75.4601
lradius 124.863
lwrist 33.4145
lhand -14.8607 -11.9664
lfingers 7.12502
lthumb 11.2991 17.7092
rfemur -67.9231 -18.6781 28.6009
rtibia 109.896
rfoot 1.27171 9.67295
rtoes -6.60732
lfemur 15.8155 -7.85105 -18.2258
ltibia 29.7323
lfoot -24.2814 7.14923
ltoes 8.80964
74
root -3.84359 17.3344 0.626624 464.322 -76.9654 -489.102
lowerback 42.1532 -14.5487 -3.72739
upperback 11.5709 -21.9389 -0.302121
thorax -4.97695 -11.7406 9.73507
lowerneck 9.11105 12.6629 2.06852
upperneck 1.05343 16.7448 -6.73552
head -0.386989 8.42932 -2.89164
rclavicle -1.74931e-014 -7.39479e-014
rhumerus -53.3512 13.4643 -74.5387
rradius 34.2716
rwrist 17.9111
rhand -36.5668 39.1287
rfingers 7.12502
rthumb -9.6567 9.37006
lclavicle -1.74931e-014 -7.39479e-014
lhumerus 29.8203 3.16153 75.0158
lradius 124.702
lwrist 33.4337
lhand -14.6425 -11.9301
lfingers 7.12502
lthumb 11.5096 17.7339
rfemur -65.8193 -18.2953 27.9577
rtibia 108.49
rfoot 1.51644 9.09223
rtoes -6.73316
lfemur 15.2811 -7.85929 -18.3338
ltibia 30.0502
lfoot -24.631 7.50601
ltoes 8.78167
75
root -3.85984 17.3317 0.620213 466.092 -76.8199 -490.406
lowerback 41.286 -14.4349 -3.562
upperback 11.3549 -21.6483 -0.278398
thorax -5.04931 -11.5482 9.49758
lowerneck 8.85174 12.5842 1.90552
upperneck 1.21482 16.6365 -6.51465
head -0.330327 8.36454 -2.76805
rclavicle -1.17283e-013 6.91771e-014
rhumerus -52.7729 13.364 -74.715
rradius 34.747
rwrist 17.3057
rhand -36.3575 38.8283
rfingers 7.12502
rthumb -9.45479 9.06035
lclavicle -1.17283e-013 6.91771e-014
lhumerus 28.7598 3.39465 74.5545
lradius 124.5
lwrist 33.4554
lhand -14.4496 -11.9619
lfingers 7.12502
lthumb 11.6956 17.6916
rfemur -63.6901 -17.914 27.3466
rtibia 107.005
rfoot 1.64147 8.54274
rtoes -7.55497
lfemur 14.7205 -7.87718 -18.3948
ltibia 30.3761
lfoot -24.9695 7.83047
ltoes 8.68354
76
root -3.87604 17.33 0.613422 467.802 -76.6793 -491.654
lowerback 40.4338 -14.3308 -3.37469
upperback 11.1206 -21.3622 -0.274043
thorax -5.14996 -11.3531 9.2385
lowerneck 8.56277 12.4975 1.85431
upperneck 1.4403 16.5305 -6.33651
head -0.234834 8.3007 -2.66956
rclavicle 5.42682e-014 -1.1291e-013
rhumerus -52.2318 13.2217 -74.9256
rradius 35.2088
rwrist 16.7886
rhand -36.1866 38.5084
rfingers 7.12502
rthumb -9.28987 8.73308
lclavicle 5.42682e-014 -1.1291e-013
lhumerus 27.5849 3.57949 74.0556
lradius 124.274
lwrist 33.4443
lhand -14.2613 -12.0324
lfingers 7.12502
lthumb 11.8772 17.6107
rfemur -61.5307 -17.4907 26.7391
rtibia 105.426
rfoot 1.78613 8.00947
rtoes -8.14736
lfemur 14.1734 -7.91011 -18.4649
ltibia 30.6945
lfoot -25.2908 8.15421
ltoes 8.54655
77
root -3.89403 17.3253 0.606273 469.597 -76.5585 -492.989
lowerback 39.618 -14.2014 -3.22782
upperback 10.8352 -21.058 -0.243055
thorax -5.29167 -11.1453 9.02978
lowerneck 8.26503 12.4072 1.87322
upperneck 1.78515 16.4253 -6.24955
head -0.0859123 8.23558 -2.60419
rclavicle -3.3197e-014 4.13472e-014
rhumerus -51.7783 13.1346 -75.1265
rradius 35.7315
rwrist 16.2741
rhand -35.9794 38.2231
rfingers 7.12502
rthumb -9.0899 8.439
lclavicle -3.3197e-014 4.13472e-014
lhumerus 26.3318 3.73678 73.6484
lradius 123.985
lwrist 33.3553
lhand -14.0077 -12.1103
lfingers 7.12502
lthumb 12.1216 17.5186
rfemur -59.3958 -17.031 26.106
rtibia 103.808
rfoot 1.91091 7.48136
rtoes -8.31192
lfemur 13.6315 -7.96241 -18.588
ltibia 31.0179
lfoot -25.6937 8.45827
ltoes 8.53235
78
root -3.91331 17.3216 0.598903 471.347 -76.4226 -494.287
lowerback 38.8355 -14.0608 -3.06805
upperback 10.5257 -20.7359 -0.189147
thorax -5.45984 -10.9278 8.84077
lowerneck 7.94152 12.3025 1.94047
upperneck 2.15749 16.3061 -6.20715
head 0.0828768 8.16349 -2.5578
rclavicle 5.96354e-016 -8.74653e-015
rhumerus -51.3493 12.9921 -75.2749
rradius 36.2416
rwrist 15.909
rhand -35.842 37.9076
rfingers 7.12502
rthumb -8.95729 8.11771
lclavicle 5.96354e-016 -8.74653e-015
lhumerus 25.0014 3.83468 73.3058
lradius 123.668
lwrist 33.2585
lhand -13.7385 -12.186
lfingers 7.12502
lthumb 12.3812 17.4273
rfemur -57.2622 -16.5104 25.5153
rtibia 102.121
rfoot 1.94379 6.92394
rtoes -8.11888
lfemur 13.0988 -7.96597 -18.6821
ltibia 31.3403
lfoot -26.0596 8.74585
ltoes 8.46507
79
root -3.9342 17.3172 0.591579 473.111 -76.2859 -495.594
lowerback 38.0588 -13.9268 -2.89425
upperback 10.1965 -20.418 -0.152387
thorax -5.6531 -10.7091 8.63382
lowerneck 7.64965 12.1986 2.08874
upperneck 2.55132 16.194 -6.19334
head 0.262501 8.09562 -2.53552
rclavicle -5.36719e-015 -6.36111e-015
rhumerus -50.9975 12.8775 -75.4754
rradius 36.7848
rwrist 15.6077
rhand -35.728 37.5
rfingers 7.12502
rthumb -8.84732 7.7055
lclavicle -5.36719e-015 -6.36111e-015
lhumerus 23.6048 3.8741 72.9362
lradius 123.334
lwrist 33.0481
lhand -13.5058 -12.292
lfingers 7.12502
lthumb 12.6056 17.3077
rfemur -55.1686 -15.9738 24.9511
rtibia 100.395
rfoot 1.96423 6.44729
rtoes -7.5461
lfemur 12.5636 -7.94783 -18.7768
ltibia 31.659
lfoot -26.4262 9.02927
ltoes 8.34274
80
root -3.95554 17.3115 0.584049 474.801 -76.1595 -496.847
lowerback 37.3135 -13.7749 -2.74945
upperback 9.86109 -20.0923 -0.0877197
thorax -5.83893 -10.4917 8.46728
lowerneck 7.38959 12.0917 2.22653
upperneck 2.93487 16.0746 -6.23465
head 0.437145 8.02469 -2.53327
rclavicle -1.36366e-013 8.74653e-014
rhumerus -50.6213 12.7561 -75.6144
rradius 37.2915
rwrist 15.3613
rhand -35.6139 37.0998
rfingers 7.12502
rthumb -8.73727 7.30061
lclavicle -1.36366e-013 8.74653e-014
lhumerus 22.1936 3.90237 72.6212
lradius 122.998
lwrist 32.8707
lhand -13.2113 -12.3366
lfingers 7.12502
lthumb 12.8895 17.2454
rfemur -53.1026 -15.4112 24.4152
rtibia 98.6261
rfoot 1.987 6.09496
rtoes -7.19656
lfemur 12.0476 -7.91227 -18.8692
ltibia 31.9786
lfoot -26.7913 9.24732
ltoes 8.29998
81
root -3.97834 17.3061 0.575538 476.489 -76.044 -498.092
lowerback 36.5409 -13.6145 -2.59353
upperback 9.53569 -19.7557 -0.0448168
thorax -6.00887 -10.2715 8.26278
lowerneck 7.15405 11.9714 2.41525
upperneck 3.27765 15.9407 -6.30087
head 0.600398 7.94864 -2.55172
rclavicle -1.23445e-013 1.35174e-014
rhumerus -50.2646 12.5439 -75.7494
rradius 37.7568
rwrist 15.2112
rhand -35.5273 36.6938
rfingers 7.12502
rthumb -8.65361 6.89113
lclavicle -1.23445e-013 1.35174e-014
lhumerus 20.8349 3.88858 72.2979
lradius 122.616
lwrist 32.6462
lhand -12.946 -12.2449
lfingers 7.12502
lthumb 13.1453 17.3208
rfemur -51.094 -14.7897 23.8983
rtibia 96.8313
rfoot 1.95638 5.8116
rtoes -7.08613
lfemur 11.5261 -7.88287 -18.9845
ltibia 32.2967
lfoot -27.16 9.49516
ltoes 8.20657
